<svg id="Dreamforce_2016" data-name="Dreamforce 2016" xmlns="http://www.w3.org/2000/svg" viewBox="0 0 100 100"><defs><style>.cls-1{fill:#2977bb;}.cls-2{fill:#fff;}</style></defs><title>SVG Icon</title><g id="Microsoft_Exchange" data-name="Microsoft Exchange"><g id="SVG_Icon" data-name="SVG Icon"><path class="cls-1" d="M51.1,3.1c1.9-.3,3.7-.7,5.6-.9,0,5.8,0,11.6,0,17.3h40a3.1,3.1,0,0,1,3.1,3.4q0,26.9,0,53.8c0,1.2.2,2.6-.6,3.6a3.2,3.2,0,0,1-2.9,1.2H56.8V97.8c-7.8-1.1-15.5-2.7-23.3-3.9L.5,88.1c-.6,0-.4-.8-.5-1.2q0-37.1,0-74.3a.7.7,0,0,1,.7-.8Z"/><path class="cls-2" d="M56.8,22.9H96.6q0,27.7,0,55.4H56.8q0-2.1,0-4.3c1.6-.1,3.5.4,4.8-.7a40.8,40.8,0,0,0,4.2-4.9,68.1,68.1,0,0,0,8.4-13.1l-1-.9c-.6-.1-.9.4-1.3.7L60.7,66.6c-.9,1.2-2.6.6-3.9.7q0-8.1,0-16.2a54.2,54.2,0,0,0,7.7,4.4c.3-.4,1.3-1.1.7-1.6l-8.4-8.3c0-4,0-8,0-11.9a25.3,25.3,0,0,1,4.5.1,16.5,16.5,0,0,1,3,2.7H65c.7-1.2,2.1-2.3,2.1-3.8-1.5-1.7-3.3-3.1-4.9-4.7s-3.6-.8-5.4-.9Q56.8,25,56.8,22.9Z"/><path class="cls-1" d="M74.9,29.8c1.1-1.2,2.2-2.8,3.9-2.8H90.5c.9,0,2,.4,2.1,1.4.1,4.4,0,8.7,0,13.1.1,1.2-.9,1.9-1.6,2.7s-2.6,2.9-4.1,4.2-2.6-1.6-4-2.3c.7-1.4,2.1-2.2,2.9-3.5.3-2.9.1-5.9.1-8.8-2.3-.1-4.5-.1-6.8,0s-1.4.7-2,1.2l-11,11.2a1.6,1.6,0,0,1-1.5.5c-.2-.6-.5-1.3-.1-1.8A86,86,0,0,1,74.9,29.8Z"/><path class="cls-2" d="M19.7,33.7l14.1-1.1c0,2.2,0,4.3,0,6.5-2.9,0-5.7,0-8.6.2,0,2.5,0,4.9,0,7.4h8.6c0,2.1,0,4.3,0,6.4l-8.6-.2c0,2.5,0,5,0,7.5l9.7.6c.1,2.2,0,4.4,0,6.5L19.7,66Q19.7,49.9,19.7,33.7Z"/><path class="cls-1" d="M72.9,46.8l1-1.3a72.2,72.2,0,0,1,13.9,9,31.5,31.5,0,0,1,4.3,3.8c.7.8.6,2,.6,3-.1,3.8.1,7.6,0,11.3,0,1.1-1.2,1.5-2.1,1.4H78.2c-1.3.1-2.1-1.2-3-1.9a37.5,37.5,0,0,1-3.8-3.7c.1-1.5,1.5-2.5,2.2-3.8h.6c1.3,1,2.2,2.9,4,2.8H86c0-2.3.1-4.5,0-6.8s-.8-1.4-1.3-2Z"/></g></g></svg>