<?xml version="1.0" standalone="no"?>
<!DOCTYPE svg PUBLIC "-//W3C//DTD SVG 20010904//EN"
 "http://www.w3.org/TR/2001/REC-SVG-20010904/DTD/svg10.dtd">
<svg version="1.0" xmlns="http://www.w3.org/2000/svg"
 width="64.000000pt" height="64.000000pt" viewBox="0 0 64.000000 64.000000"
 preserveAspectRatio="xMidYMid meet">
<metadata>
Created by potrace 1.15, written by Peter Selinger 2001-2017
</metadata>
<g transform="translate(0.000000,64.000000) scale(0.100000,-0.100000)"
fill="#FF5252" stroke="none">
<path d="M194 596 c-112 -52 -174 -151 -174 -276 0 -176 124 -300 300 -300
176 0 300 124 300 300 0 176 -124 300 -300 300 -58 0 -87 -6 -126 -24z m80
-172 c15 -6 23 -54 9 -54 -4 0 -17 10 -29 21 -17 16 -30 20 -48 15 -37 -9 -34
-43 5 -64 60 -33 79 -53 79 -81 0 -45 -28 -63 -96 -59 -56 3 -59 4 -62 31 -4
32 8 35 33 7 26 -29 79 -24 83 8 3 16 -5 27 -28 40 -62 34 -80 52 -80 83 0 24
6 33 33 44 34 15 75 19 101 9z m220 0 c19 -7 22 -54 3 -54 -7 0 -18 9 -25 20
-30 49 -82 4 -82 -71 0 -68 13 -89 53 -89 18 0 38 5 45 12 20 20 26 -1 7 -22
-20 -22 -82 -27 -115 -10 -41 22 -52 115 -20 168 27 45 86 65 134 46z"/>
</g>
</svg>
